<?xml version="1.0" encoding="utf-8"?>
<!-- Generator: Adobe Illustrator 16.0.0, SVG Export Plug-In . SVG Version: 6.00 Build 0)  -->
<!DOCTYPE svg PUBLIC "-//W3C//DTD SVG 1.1//EN" "http://www.w3.org/Graphics/SVG/1.1/DTD/svg11.dtd">
<svg version="1.1" id="Layer_1" xmlns="http://www.w3.org/2000/svg" xmlns:xlink="http://www.w3.org/1999/xlink" x="0px" y="0px"
	 width="512px" height="512px" viewBox="0 0 512 512" enable-background="new 0 0 512 512" xml:space="preserve">
<text transform="matrix(1 0 0 1 168.7834 543.8093)"><tspan x="0" y="0" fill="#FFFF00" font-family="'Verdana-Bold'" font-size="20">simpleicon.com</tspan><tspan x="-159.59" y="24" fill="#FFFF00" font-family="'Verdana'" font-size="20">Collection Of Flat Icon, Symbols And Glyph Icons</tspan></text>
<path d="M256,50C142.229,50,50,142.229,50,256c0,113.771,92.229,206,206,206c113.771,0,206-92.229,206-206
	C462,142.229,369.771,50,256,50z M373.545,261.68c-5.589,22.825-18.87,43.301-36.103,59.08
	c-33.535,30.361-79.981,44.914-124.859,42.025c-43.143-2.636-85.599-23.899-111.083-59.181c2.229,1.3,4.098,3.098,6.226,4.542
	c19.731,14.275,46,18.813,69.459,12.44c14.235-3.673,27.162-11.636,37.486-22.036c-6.606,0.446-13.938-0.729-18.725-5.705
	c-2.985-2.845-4.217-7.52-2.422-11.33c2.173-4.808,7.001-7.544,11.563-9.696c-14.971,2.141-31.286-4.836-38.187-18.685
	c5.058-6.027,13.141-7.967,20.65-8.555c-8.739-2.542-17.713-5.665-24.338-12.183c-5.267-4.941-8.69-11.789-9.716-18.918
	c6.186-1.155,12.398-2.559,18.737-2.293c-14.375-7.484-27.516-21.735-26.37-38.959c27.263,9.946,54.085,21.284,79.698,34.979
	c8.96,4.921,16.408,12.05,23.734,19.075c7.098-18.427,14.714-36.927,26.257-53.095c6.185-8.503,13.482-16.417,22.455-22.02
	c-0.354,2.786-1.786,5.218-3.103,7.634c6.691-5.051,14.444-8.96,22.857-9.946c-1.158,5.031-5.935,7.665-10.095,9.952
	c6.28-1.856,12.404-4.597,19.022-5.049c1.771-0.063,4.289,0.012,4.917,2.066c0.945,2.559-1.642,4.544-3.605,5.611
	c-7.226,3.728-15.574,4.275-22.921,7.719c15.1-1.418,30.172,4.436,41.626,14.098c13.668,11.254,22.704,27.541,25.996,44.857
	c12.082,3.243,25.143,0.894,36.48-3.919c-5.701,12.907-20.218,18.806-33.483,19.956c11.024,4.161,23.151,4.869,34.799,3.63
	C401.262,258.011,386.975,261.995,373.545,261.68z"/>
</svg>
